<svg width="60" height="13" viewBox="0 0 60 13" fill="none" xmlns="http://www.w3.org/2000/svg">
<path d="M0.806631 13V0.484992H6.23306C7.18635 0.484992 7.98687 0.61332 8.63462 0.869976C9.28645 1.12663 9.77735 1.48921 10.1073 1.95771C10.4414 2.4262 10.6084 2.97822 10.6084 3.61374C10.6084 4.07409 10.5066 4.49371 10.3029 4.87258C10.1033 5.25145 9.82216 5.56921 9.45959 5.82587C9.09701 6.07845 8.67332 6.25363 8.18853 6.3514V6.47362C8.72629 6.49399 9.21515 6.63046 9.65513 6.88305C10.0951 7.13155 10.4455 7.4758 10.7062 7.91578C10.9669 8.35168 11.0973 8.865 11.0973 9.45571C11.0973 10.1401 10.918 10.7492 10.5595 11.2829C10.2051 11.8165 9.69995 12.2361 9.04405 12.5417C8.38815 12.8472 7.60596 13 6.69748 13H0.806631ZM4.20426 10.2868H5.79308C6.36343 10.2868 6.79118 10.1809 7.07636 9.96902C7.36153 9.7531 7.50412 9.43534 7.50412 9.01573C7.50412 8.72241 7.4369 8.4739 7.30246 8.27021C7.16802 8.06651 6.97655 7.9117 6.72804 7.80578C6.48361 7.69986 6.18825 7.6469 5.84197 7.6469H4.20426V10.2868ZM4.20426 5.54477H5.59753C5.89493 5.54477 6.15769 5.49792 6.38583 5.40422C6.61397 5.31052 6.79118 5.17608 6.91748 5.00091C7.04784 4.82165 7.11302 4.6037 7.11302 4.34704C7.11302 3.96002 6.97451 3.66467 6.69748 3.46097C6.42046 3.2532 6.0701 3.14932 5.64642 3.14932H4.20426V5.54477ZM11.9938 13V0.484992H17.3958C18.3247 0.484992 19.1374 0.654059 19.8341 0.992192C20.5307 1.33033 21.0725 1.81716 21.4595 2.45268C21.8466 3.08821 22.0401 3.85003 22.0401 4.73814C22.0401 5.6344 21.8404 6.3901 21.4412 7.00526C21.046 7.62042 20.49 8.08484 19.7729 8.39853C19.06 8.71222 18.2269 8.86907 17.2736 8.86907H14.0471V6.22919H16.5892C16.9884 6.22919 17.3286 6.1803 17.6097 6.08252C17.8949 5.98068 18.1128 5.81976 18.2636 5.59977C18.4184 5.37978 18.4958 5.09257 18.4958 4.73814C18.4958 4.37964 18.4184 4.08835 18.2636 3.86429C18.1128 3.63615 17.8949 3.46912 17.6097 3.3632C17.3286 3.2532 16.9884 3.19821 16.5892 3.19821H15.3915V13H11.9938ZM19.3269 7.25581L22.4556 13H18.7647L15.7092 7.25581H19.3269ZM26.432 13H22.7655L26.8964 0.484992H31.5407L35.6716 13H32.0051L29.2674 3.93151H29.1697L26.432 13ZM25.7476 8.06244H32.6406V10.6045H25.7476V8.06244ZM47.3981 0.484992V13H44.5627L40.0406 6.42473H39.9673V13H36.5697V0.484992H39.454L43.9027 7.03582H44.0005V0.484992H47.3981ZM53.5133 13H48.698V0.484992H53.4644C54.7518 0.484992 55.864 0.735537 56.8009 1.23663C57.742 1.73364 58.4672 2.45065 58.9764 3.38764C59.4897 4.32056 59.7464 5.43885 59.7464 6.7425C59.7464 8.04614 59.4918 9.16646 58.9825 10.1035C58.4733 11.0364 57.7522 11.7534 56.8193 12.2545C55.8864 12.7515 54.7844 13 53.5133 13ZM52.0956 10.1157H53.3911C54.0103 10.1157 54.5379 10.0159 54.9738 9.81625C55.4138 9.61663 55.7478 9.27239 55.976 8.78352C56.2082 8.29465 56.3243 7.61431 56.3243 6.7425C56.3243 5.87068 56.2062 5.19034 55.9699 4.70147C55.7377 4.21261 55.3955 3.86836 54.9433 3.66874C54.4951 3.46912 53.9451 3.36931 53.2933 3.36931H52.0956V10.1157Z" fill="black"/>
</svg>
